<?xml version="1.0" encoding="utf-8"?>
<!-- Generator: Adobe Illustrator 27.8.1, SVG Export Plug-In . SVG Version: 6.00 Build 0)  -->
<svg version="1.1" id="Layer_1" xmlns="http://www.w3.org/2000/svg" xmlns:xlink="http://www.w3.org/1999/xlink" x="0px" y="0px"
	 viewBox="0 0 40 40" style="enable-background:new 0 0 40 40;" xml:space="preserve">
<style type="text/css">
	.st0{fill:#FFFFFF;}
</style>
<path class="st0" d="M7.8,35c-0.8,0-1.4-0.3-2-0.8C5.3,33.6,5,33,5,32.2V7.8c0-0.8,0.3-1.4,0.8-2C6.4,5.3,7,5,7.8,5h10.8
	c0.4,0,0.7,0.1,1,0.4C19.8,5.7,20,6,20,6.4c0,0.4-0.1,0.7-0.4,1c-0.3,0.3-0.6,0.4-1,0.4H7.8v24.4h10.8c0.4,0,0.7,0.1,1,0.4
	c0.3,0.3,0.4,0.6,0.4,1s-0.1,0.7-0.4,1c-0.3,0.3-0.6,0.4-1,0.4C18.6,35,7.8,35,7.8,35z M29.7,21.4H16.4c-0.4,0-0.7-0.1-1-0.4
	c-0.3-0.3-0.4-0.6-0.4-1s0.1-0.7,0.4-1c0.3-0.3,0.6-0.4,1-0.4h13.2l-3.3-3.3c-0.3-0.3-0.4-0.6-0.4-1c0-0.4,0.1-0.7,0.4-1
	c0.3-0.3,0.6-0.4,1-0.4s0.7,0.1,1,0.4l5.7,5.7c0.3,0.3,0.4,0.6,0.4,1c0,0.4-0.1,0.7-0.4,1l-5.7,5.7c-0.3,0.3-0.6,0.4-1,0.4
	c-0.4,0-0.7-0.2-1-0.4c-0.3-0.3-0.4-0.6-0.4-1c0-0.4,0.1-0.7,0.4-1C26.4,24.6,29.7,21.4,29.7,21.4z"/>
</svg>
