<svg width="17" height="20" viewBox="0 0 17 20" fill="none" xmlns="http://www.w3.org/2000/svg">
<mask id="mask0_22_8416" style="mask-type:alpha" maskUnits="userSpaceOnUse" x="-3" y="0" width="20" height="20">
<rect x="-3" width="20" height="20" fill="#D9D9D9"/>
</mask>
<g mask="url(#mask0_22_8416)">
<path d="M6.99583 12.6875C6.89583 12.6875 6.80208 12.6701 6.71458 12.6354C6.62708 12.6007 6.54861 12.5486 6.47917 12.4792L3.52083 9.52083C3.36806 9.36932 3.29514 9.19255 3.30208 8.99052C3.30903 8.78851 3.38557 8.61111 3.53171 8.45833C3.69113 8.30556 3.87153 8.22917 4.07292 8.22917C4.27431 8.22917 4.45139 8.30556 4.60417 8.45833L6.25 10.125V3.75C6.25 3.5375 6.32145 3.35937 6.46435 3.21562C6.60727 3.07187 6.78435 3 6.9956 3C7.20687 3 7.38542 3.07187 7.53125 3.21562C7.67708 3.35937 7.75 3.5375 7.75 3.75V10.125L9.41667 8.45833C9.56482 8.30556 9.74074 8.23264 9.94444 8.23958C10.1481 8.24653 10.3297 8.32639 10.4891 8.47917C10.6353 8.63194 10.7083 8.80903 10.7083 9.01042C10.7083 9.21181 10.6319 9.38889 10.4792 9.54167L7.52083 12.4792C7.44583 12.5486 7.36458 12.6007 7.27708 12.6354C7.18958 12.6701 7.09583 12.6875 6.99583 12.6875ZM2.4941 16C2.08137 16 1.72917 15.8531 1.4375 15.5594C1.14583 15.2656 1 14.9125 1 14.5V13.75C1 13.5375 1.07145 13.3594 1.21435 13.2156C1.35727 13.0719 1.53435 13 1.7456 13C1.95687 13 2.13542 13.0719 2.28125 13.2156C2.42708 13.3594 2.5 13.5375 2.5 13.75V14.5H11.5V13.75C11.5 13.5375 11.5715 13.3594 11.7144 13.2156C11.8573 13.0719 12.0344 13 12.2456 13C12.4569 13 12.6354 13.0719 12.7812 13.2156C12.9271 13.3594 13 13.5375 13 13.75V14.5C13 14.9125 12.853 15.2656 12.5591 15.5594C12.2652 15.8531 11.9119 16 11.4992 16H2.4941Z" fill="#A8B3BD"/>
</g>
</svg>
