<svg width="24" height="24" viewBox="0 0 24 24" fill="none" xmlns="http://www.w3.org/2000/svg">
<path d="M8.7456 12.25C8.95687 12.25 9.13542 12.1785 9.28125 12.0356C9.42708 11.8927 9.5 11.7156 9.5 11.5044C9.5 11.2931 9.42855 11.1146 9.28565 10.9688C9.14273 10.8229 8.96565 10.75 8.7544 10.75C8.54313 10.75 8.36458 10.8215 8.21875 10.9644C8.07292 11.1073 8 11.2844 8 11.4956C8 11.7069 8.07145 11.8854 8.21435 12.0312C8.35727 12.1771 8.53435 12.25 8.7456 12.25ZM11.9956 12.25C12.2069 12.25 12.3854 12.1785 12.5312 12.0356C12.6771 11.8927 12.75 11.7156 12.75 11.5044C12.75 11.2931 12.6785 11.1146 12.5356 10.9688C12.3927 10.8229 12.2156 10.75 12.0044 10.75C11.7931 10.75 11.6146 10.8215 11.4688 10.9644C11.3229 11.1073 11.25 11.2844 11.25 11.4956C11.25 11.7069 11.3215 11.8854 11.4644 12.0312C11.6073 12.1771 11.7844 12.25 11.9956 12.25ZM15.2456 12.25C15.4569 12.25 15.6354 12.1785 15.7812 12.0356C15.9271 11.8927 16 11.7156 16 11.5044C16 11.2931 15.9285 11.1146 15.7856 10.9688C15.6427 10.8229 15.4656 10.75 15.2544 10.75C15.0431 10.75 14.8646 10.8215 14.7188 10.9644C14.5729 11.1073 14.5 11.2844 14.5 11.4956C14.5 11.7069 14.5715 11.8854 14.7144 12.0312C14.8573 12.1771 15.0344 12.25 15.2456 12.25ZM4 21V6.5C4 6.0875 4.14688 5.73438 4.44063 5.44063C4.73438 5.14688 5.0875 5 5.5 5H18.5C18.9125 5 19.2656 5.14688 19.5594 5.44063C19.8531 5.73438 20 6.0875 20 6.5V16.5C20 16.9125 19.8531 17.2656 19.5594 17.5594C19.2656 17.8531 18.9125 18 18.5 18H7L4 21ZM6.375 16.5H18.5V6.5H5.5V17.375L6.375 16.5Z" fill="#7F8A94"/>
<mask id="mask0_24_12763" style="mask-type:alpha" maskUnits="userSpaceOnUse" x="2" y="3" width="20" height="20">
<rect x="2" y="3" width="20" height="20" fill="#D9D9D9"/>
</mask>
<g mask="url(#mask0_24_12763)">
<path d="M8.7456 12.25C8.95687 12.25 9.13542 12.1785 9.28125 12.0356C9.42708 11.8927 9.5 11.7156 9.5 11.5044C9.5 11.2931 9.42855 11.1146 9.28565 10.9688C9.14273 10.8229 8.96565 10.75 8.7544 10.75C8.54313 10.75 8.36458 10.8215 8.21875 10.9644C8.07292 11.1073 8 11.2844 8 11.4956C8 11.7069 8.07145 11.8854 8.21435 12.0312C8.35727 12.1771 8.53435 12.25 8.7456 12.25ZM11.9956 12.25C12.2069 12.25 12.3854 12.1785 12.5312 12.0356C12.6771 11.8927 12.75 11.7156 12.75 11.5044C12.75 11.2931 12.6785 11.1146 12.5356 10.9688C12.3927 10.8229 12.2156 10.75 12.0044 10.75C11.7931 10.75 11.6146 10.8215 11.4688 10.9644C11.3229 11.1073 11.25 11.2844 11.25 11.4956C11.25 11.7069 11.3215 11.8854 11.4644 12.0312C11.6073 12.1771 11.7844 12.25 11.9956 12.25ZM15.2456 12.25C15.4569 12.25 15.6354 12.1785 15.7812 12.0356C15.9271 11.8927 16 11.7156 16 11.5044C16 11.2931 15.9285 11.1146 15.7856 10.9688C15.6427 10.8229 15.4656 10.75 15.2544 10.75C15.0431 10.75 14.8646 10.8215 14.7188 10.9644C14.5729 11.1073 14.5 11.2844 14.5 11.4956C14.5 11.7069 14.5715 11.8854 14.7144 12.0312C14.8573 12.1771 15.0344 12.25 15.2456 12.25ZM7 18L5.27327 19.7267C5.03553 19.9645 4.76389 20.018 4.45833 19.8874C4.15278 19.7567 4 19.5234 4 19.1875V6.5C4 6.0875 4.14688 5.73438 4.44063 5.44063C4.73438 5.14688 5.0875 5 5.5 5H18.5C18.9125 5 19.2656 5.14688 19.5594 5.44063C19.8531 5.73438 20 6.0875 20 6.5V16.5C20 16.9125 19.8531 17.2656 19.5594 17.5594C19.2656 17.8531 18.9125 18 18.5 18H7ZM6.375 16.5H18.5V6.5H5.5V17.375L6.375 16.5Z" fill="#66707A"/>
</g>
</svg>
