<svg width="25" height="24" viewBox="0 0 25 24" fill="none" xmlns="http://www.w3.org/2000/svg">
<mask id="mask0_24_12746" style="mask-type:alpha" maskUnits="userSpaceOnUse" x="2" y="3" width="20" height="20">
<rect x="2" y="3" width="20" height="20" fill="#D9D9D9"/>
</mask>
<g mask="url(#mask0_24_12746)">
<path d="M6.5 20C6.0875 20 5.73437 19.8531 5.44062 19.5594C5.14687 19.2656 5 18.9125 5 18.5V7.5C5 7.08178 5.14583 6.72375 5.4375 6.42592C5.72917 6.12808 6.08333 5.98611 6.5 6H13.7083L12.2083 7.5H6.5V18.5H17.5V12.7917L19 11.2917V18.5C19 18.9125 18.8531 19.2656 18.5594 19.5594C18.2656 19.8531 17.9125 20 17.5 20H6.5ZM10 14.2538V12.4443C10 12.2453 10.0347 12.0556 10.1042 11.875C10.1736 11.6944 10.2824 11.5301 10.4304 11.3821L17.375 4.4375C17.5278 4.28472 17.6944 4.17361 17.875 4.10417C18.0556 4.03472 18.2396 4 18.4271 4C18.6271 4 18.8177 4.03472 18.999 4.10417C19.1802 4.17361 19.3468 4.28322 19.4988 4.43298L20.5625 5.5C20.7153 5.65278 20.8264 5.82071 20.8958 6.00379C20.9653 6.18688 21 6.37311 21 6.5625C21 6.75224 20.9651 6.93881 20.8954 7.12221C20.8256 7.30561 20.7147 7.47321 20.5625 7.625L13.6179 14.5696C13.4699 14.7176 13.3059 14.8264 13.126 14.8958C12.9462 14.9653 12.757 15 12.5586 15H10.7538C10.5429 15 10.3646 14.9285 10.2188 14.7855C10.0729 14.6425 10 14.4652 10 14.2538ZM11.5 13.5H12.5625L17.375 8.6875L16.8542 8.14583L16.3125 7.625L11.5 12.4375V13.5Z" fill="#7F8A94"/>
</g>
</svg>
