<svg width="24" height="24" viewBox="0 0 24 24" fill="none" xmlns="http://www.w3.org/2000/svg">
<mask id="mask0_22_14594" style="mask-type:alpha" maskUnits="userSpaceOnUse" x="2" y="2" width="20" height="20">
<rect x="2" y="2" width="20" height="20" fill="#D9D9D9"/>
</mask>
<g mask="url(#mask0_22_14594)">
<path d="M18.2587 11.9792C18.055 11.9792 17.8735 11.9074 17.7144 11.7636C17.5553 11.6199 17.4629 11.4417 17.4375 11.2292C17.2708 10.007 16.75 8.96189 15.875 8.09383C15 7.22578 13.9514 6.70841 12.7292 6.54175C12.5167 6.51655 12.3385 6.42837 12.1948 6.27721C12.051 6.12605 11.9792 5.9434 11.9792 5.72925C11.9792 5.5348 12.0542 5.36119 12.2042 5.20841C12.3542 5.05564 12.5292 4.99314 12.7292 5.02091C14.3746 5.20314 15.7784 5.87343 16.9407 7.03179C18.1029 8.19015 18.7755 9.5893 18.9583 11.2292C18.9861 11.4292 18.9305 11.6042 18.7917 11.7542C18.6528 11.9042 18.4751 11.9792 18.2587 11.9792ZM14.9792 11.9792C14.8095 11.9792 14.6595 11.9237 14.529 11.8126C14.3986 11.7015 14.3055 11.5487 14.25 11.3542C14.1389 10.9654 13.9334 10.6235 13.6336 10.3287C13.3337 10.0339 12.9906 9.83407 12.6042 9.72925C12.4097 9.67369 12.2569 9.57994 12.1458 9.448C12.0347 9.31605 11.9792 9.1643 11.9792 8.99273C11.9792 8.74763 12.066 8.54522 12.2396 8.3855C12.4132 8.22578 12.6103 8.17189 12.8308 8.22383C13.5574 8.39266 14.1834 8.74007 14.7088 9.26604C15.2343 9.79201 15.5813 10.4186 15.75 11.1459C15.8055 11.3558 15.7521 11.5472 15.5898 11.72C15.4274 11.8928 15.2239 11.9792 14.9792 11.9792ZM17.8958 18.9792C16.2153 18.8542 14.6215 18.4411 13.1146 17.7397C11.6076 17.0383 10.2569 16.0904 9.06249 14.8959C7.86805 13.7015 6.9236 12.3508 6.22916 10.8438C5.53471 9.33689 5.12499 7.74314 4.99999 6.06258C4.97221 5.77091 5.05753 5.51744 5.25595 5.30216C5.45435 5.08689 5.70236 4.97925 5.99999 4.97925H8.83332C9.06943 4.97925 9.2743 5.05216 9.44791 5.198C9.62152 5.34383 9.7361 5.52786 9.79166 5.75008L10.2917 7.97925C10.3194 8.1598 10.309 8.33341 10.2604 8.50008C10.2118 8.66675 10.1319 8.80564 10.0208 8.91675L7.99999 10.9584C8.27777 11.4862 8.59721 11.9931 8.95832 12.4792C9.31943 12.9654 9.722 13.4236 10.166 13.8539C10.5831 14.2708 11.0278 14.6563 11.5 15.0105C11.9722 15.3647 12.4722 15.6806 13 15.9584L15.0625 13.9584C15.1736 13.8473 15.3125 13.7674 15.4792 13.7188C15.6458 13.6702 15.8194 13.6598 16 13.6876L18.2292 14.1667C18.4653 14.2362 18.6528 14.3577 18.7917 14.5313C18.9305 14.7049 19 14.9098 19 15.1459V17.9792C19 18.2769 18.8889 18.5249 18.6667 18.7233C18.4444 18.9217 18.1875 19.007 17.8958 18.9792ZM7.31249 9.50008L8.77082 8.04175L8.41332 6.47925H6.54166C6.6111 7.00703 6.70832 7.52091 6.83332 8.02091C6.95832 8.52091 7.11805 9.01397 7.31249 9.50008ZM14.4792 16.6667C14.9667 16.8646 15.4635 17.0217 15.9698 17.138C16.476 17.2544 16.9861 17.3473 17.5 17.4167V15.5417L15.9375 15.2084L14.4792 16.6667Z" fill="#525960"/>
</g>
</svg>
