<svg width="25" height="24" viewBox="0 0 25 24" fill="none" xmlns="http://www.w3.org/2000/svg">
<mask id="mask0_24_12775" style="mask-type:alpha" maskUnits="userSpaceOnUse" x="3" y="3" width="20" height="20">
<rect x="3" y="3" width="20" height="20" fill="#D9D9D9"/>
</mask>
<g mask="url(#mask0_24_12775)">
<path d="M19.2587 12.9795C19.055 12.9795 18.8735 12.9076 18.7144 12.7639C18.5553 12.6201 18.4629 12.442 18.4375 12.2295C18.2708 11.0073 17.75 9.96213 16.875 9.09408C16 8.22602 14.9514 7.70866 13.7292 7.54199C13.5167 7.5168 13.3385 7.42862 13.1948 7.27745C13.051 7.1263 12.9792 6.94365 12.9792 6.72949C12.9792 6.53505 13.0542 6.36144 13.2042 6.20866C13.3542 6.05588 13.5292 5.99338 13.7292 6.02116C15.3746 6.20338 16.7784 6.87367 17.9407 8.03203C19.1029 9.19039 19.7755 10.5895 19.9583 12.2295C19.9861 12.4295 19.9305 12.6045 19.7917 12.7545C19.6528 12.9045 19.4751 12.9795 19.2587 12.9795ZM15.9792 12.9795C15.8095 12.9795 15.6595 12.9239 15.529 12.8128C15.3986 12.7017 15.3055 12.5489 15.25 12.3545C15.1389 11.9656 14.9334 11.6238 14.6336 11.329C14.3337 11.0341 13.9906 10.8343 13.6042 10.7295C13.4097 10.6739 13.2569 10.5802 13.1458 10.4482C13.0347 10.3163 12.9792 10.1645 12.9792 9.99297C12.9792 9.74787 13.066 9.54546 13.2396 9.38574C13.4132 9.22602 13.6103 9.17213 13.8308 9.22408C14.5574 9.39291 15.1834 9.74031 15.7088 10.2663C16.2343 10.7923 16.5813 11.4189 16.75 12.1462C16.8055 12.356 16.7521 12.5474 16.5898 12.7202C16.4274 12.8931 16.2239 12.9795 15.9792 12.9795ZM18.8958 19.9795C17.2153 19.8545 15.6215 19.4413 14.1146 18.7399C12.6076 18.0385 11.2569 17.0906 10.0625 15.8962C8.86805 14.7017 7.9236 13.351 7.22916 11.8441C6.53471 10.3371 6.12499 8.74338 5.99999 7.06283C5.97221 6.77116 6.05753 6.51769 6.25595 6.30241C6.45435 6.08713 6.70236 5.97949 6.99999 5.97949H9.83332C10.0694 5.97949 10.2743 6.05241 10.4479 6.19824C10.6215 6.34408 10.7361 6.5281 10.7917 6.75033L11.2917 8.97949C11.3194 9.16005 11.309 9.33366 11.2604 9.50033C11.2118 9.66699 11.1319 9.80588 11.0208 9.91699L8.99999 11.9587C9.27777 12.4864 9.59721 12.9934 9.95832 13.4795C10.3194 13.9656 10.722 14.4238 11.166 14.8542C11.5831 15.271 12.0278 15.6566 12.5 16.0107C12.9722 16.3649 13.4722 16.6809 14 16.9587L16.0625 14.9587C16.1736 14.8475 16.3125 14.7677 16.4792 14.7191C16.6458 14.6705 16.8194 14.66 17 14.6878L19.2292 15.167C19.4653 15.2364 19.6528 15.358 19.7917 15.5316C19.9305 15.7052 20 15.91 20 16.1462V18.9795C20 19.2771 19.8889 19.5251 19.6667 19.7235C19.4444 19.922 19.1875 20.0073 18.8958 19.9795ZM8.31249 10.5003L9.77082 9.04199L9.41332 7.47949H7.54166C7.6111 8.00727 7.70832 8.52116 7.83332 9.02116C7.95832 9.52116 8.11805 10.0142 8.31249 10.5003ZM15.4792 17.667C15.9667 17.8648 16.4635 18.0219 16.9698 18.1383C17.476 18.2546 17.9861 18.3475 18.5 18.417V16.542L16.9375 16.2087L15.4792 17.667Z" fill="white"/>
</g>
</svg>
