<?xml version="1.0" encoding="utf-8"?>
<!-- Generator: Adobe Illustrator 27.8.1, SVG Export Plug-In . SVG Version: 6.00 Build 0)  -->
<svg version="1.1" id="Layer_1" xmlns="http://www.w3.org/2000/svg" xmlns:xlink="http://www.w3.org/1999/xlink" x="0px" y="0px"
	 viewBox="0 0 40 40" style="enable-background:new 0 0 40 40;" xml:space="preserve">
<style type="text/css">
	.st0{fill:#FFFFFF;}
</style>
<path class="st0" d="M7.8,18.6c-0.8,0-1.4-0.3-2-0.8c-0.5-0.5-0.8-1.2-0.8-2V7.8c0-0.8,0.3-1.4,0.8-2C6.4,5.3,7,5,7.8,5h8.1
	c0.8,0,1.4,0.3,2,0.8c0.5,0.5,0.8,1.2,0.8,2v8.1c0,0.8-0.3,1.4-0.8,2c-0.5,0.5-1.2,0.8-2,0.8C15.8,18.6,7.8,18.6,7.8,18.6z M7.8,35
	c-0.8,0-1.4-0.3-2-0.8S5,33,5,32.2v-8.1c0-0.8,0.3-1.4,0.8-2c0.5-0.5,1.2-0.8,2-0.8h8.1c0.8,0,1.4,0.3,2,0.8c0.5,0.5,0.8,1.2,0.8,2
	v8.1c0,0.8-0.3,1.4-0.8,2c-0.5,0.5-1.2,0.8-2,0.8H7.8z M24.2,18.6c-0.8,0-1.4-0.3-2-0.8c-0.5-0.5-0.8-1.2-0.8-2V7.8
	c0-0.8,0.3-1.4,0.8-2c0.5-0.5,1.2-0.8,2-0.8h8.1c0.8,0,1.4,0.3,2,0.8C34.7,6.4,35,7,35,7.8v8.1c0,0.8-0.3,1.4-0.8,2
	c-0.5,0.5-1.2,0.8-2,0.8C32.2,18.6,24.2,18.6,24.2,18.6z M24.2,35c-0.8,0-1.4-0.3-2-0.8c-0.5-0.5-0.8-1.2-0.8-2v-8.1
	c0-0.8,0.3-1.4,0.8-2c0.5-0.5,1.2-0.8,2-0.8h8.1c0.8,0,1.4,0.3,2,0.8c0.5,0.5,0.8,1.2,0.8,2v8.1c0,0.8-0.3,1.4-0.8,2
	c-0.5,0.5-1.2,0.8-2,0.8H24.2z M7.8,15.8h8.1V7.8H7.8V15.8z M24.2,15.8h8.1V7.8h-8.1V15.8z M24.2,32.2h8.1v-8.1h-8.1
	C24.2,24.2,24.2,32.2,24.2,32.2z M7.8,32.2h8.1v-8.1H7.8C7.8,24.2,7.8,32.2,7.8,32.2z"/>
</svg>
