<svg width="65" height="65" viewBox="0 0 65 65" fill="none" xmlns="http://www.w3.org/2000/svg">
<circle cx="32.5" cy="32.5" r="31.5" fill="white" stroke="#4265ED" stroke-width="2"/>
<circle cx="32.5" cy="32.5" r="28" stroke="#89A1FA" stroke-linecap="round" stroke-dasharray="3 3"/>
<circle cx="32.5" cy="32.5" r="25" stroke="#4265ED" stroke-linecap="round"/>
<path d="M25.4985 14.9995L26.0598 16.727H27.8762L26.4067 17.7946L26.968 19.5221L25.4985 18.4544L24.0291 19.5221L24.5904 17.7946L23.1209 16.727H24.9373L25.4985 14.9995Z" fill="#89A1FA"/>
<path d="M39.4985 14.9995L40.0598 16.727H41.8762L40.4067 17.7946L40.968 19.5221L39.4985 18.4544L38.0291 19.5221L38.5904 17.7946L37.1209 16.727H38.9373L39.4985 14.9995Z" fill="#89A1FA"/>
<path d="M32.4985 11.9995L33.5088 15.1089H36.7783L34.1333 17.0307L35.1436 20.1401L32.4985 18.2184L29.8535 20.1401L30.8638 17.0307L28.2188 15.1089H31.4882L32.4985 11.9995Z" fill="#89A1FA"/>
<path d="M39.5 50L38.9387 48.2725L37.1224 48.2725L38.5918 47.2049L38.0305 45.4775L39.5 46.5451L40.9695 45.4775L40.4082 47.2049L41.8776 48.2725L40.0613 48.2725L39.5 50Z" fill="#89A1FA"/>
<path d="M25.5 50L24.9387 48.2725L23.1224 48.2725L24.5918 47.2049L24.0305 45.4775L25.5 46.5451L26.9695 45.4775L26.4082 47.2049L27.8776 48.2725L26.0613 48.2725L25.5 50Z" fill="#89A1FA"/>
<path d="M32.5 53L31.4897 49.8906L28.2202 49.8906L30.8653 47.9688L29.855 44.8594L32.5 46.7812L35.145 44.8594L34.1347 47.9688L36.7798 49.8906L33.5103 49.8906L32.5 53Z" fill="#89A1FA"/>
</svg>
