<svg width="154" height="117" viewBox="0 0 154 117" fill="none" xmlns="http://www.w3.org/2000/svg">
<g clip-path="url(#clip0_120_14891)">
<rect width="154" height="117" fill="#E7EBEE"/>
<rect width="167" height="126" transform="translate(-5 -3)" fill="#302984"/>
<path d="M27 75.128H21.544C19.512 75.128 18.184 74.072 18.184 72.504C18.184 70.936 19.512 69.88 21.544 69.88H27C29.016 69.88 30.36 70.936 30.36 72.504C30.36 74.072 29.016 75.128 27 75.128ZM30.216 61.16V69.496H27.688V66.328H27.048V69.496H24.568V61.224H27.048V63.976H27.688V61.16H30.216ZM24.2 66.808C24.2 68.552 22.84 69.624 21.032 69.624C19.24 69.624 17.88 68.552 17.88 66.808C17.88 65.064 19.24 63.992 21.032 63.992C22.84 63.992 24.2 65.064 24.2 66.808ZM24.264 61.608V63.72H17.736V61.608H19.688V60.552H22.312V61.608H24.264ZM21.544 72.968H27C27.416 72.968 27.576 72.744 27.576 72.504C27.576 72.248 27.416 72.024 27 72.024H21.544C21.128 72.024 20.968 72.248 20.968 72.504C20.968 72.744 21.128 72.968 21.544 72.968ZM21.784 66.808C21.784 66.312 21.512 65.976 21.032 65.976C20.552 65.976 20.28 66.312 20.28 66.808C20.28 67.304 20.552 67.64 21.032 67.64C21.512 67.64 21.784 67.304 21.784 66.808ZM34.2383 74.568L31.6783 73.416C33.6623 69.736 34.2063 65.672 34.2063 61.304H36.9423C36.9423 62.808 36.8783 64.344 36.7023 65.88C37.4063 68.36 38.9103 71.048 40.7503 72.824L38.6703 74.52C37.5663 73.432 36.6063 71.976 35.8543 70.456C35.4543 71.896 34.9263 73.288 34.2383 74.568ZM44.3183 68.744V74.984H41.5823V61.16H44.3183V66.04H45.9663V68.744H44.3183ZM59.0285 75.128H56.2925V72.936H46.9965V70.744H59.0285V75.128ZM56.2925 65.256V64.456H49.7325V65.256H56.2925ZM59.0285 61.304V67.24H54.3245V67.944H59.6205V70.12H46.3885V67.944H51.5885V67.24H46.9965V61.304H49.7325V62.456H56.2925V61.304H59.0285ZM69.2587 63.832H66.3628C66.3308 64.904 66.2508 65.912 66.1228 66.856C66.9868 69.112 68.3148 71.176 70.0268 72.776L67.8988 74.52C66.8428 73.48 65.8988 72.136 65.1468 70.728C64.6028 72.12 63.9148 73.4 63.0508 74.568L60.6508 73.24C62.6028 70.488 63.5468 67.864 63.6268 63.832H61.2428V61.304H69.2587V63.832ZM73.4348 61.16V74.984H70.6988V61.16H73.4348ZM77.457 74.568L74.897 73.416C76.881 69.736 77.425 65.672 77.425 61.304H80.161C80.161 62.808 80.097 64.344 79.921 65.88C80.625 68.36 82.129 71.048 83.969 72.824L81.889 74.52C80.785 73.432 79.825 71.976 79.073 70.456C78.673 71.896 78.145 73.288 77.457 74.568ZM87.537 68.744V74.984H84.801V61.16H87.537V66.04H89.185V68.744H87.537ZM20.28 85.84C20.28 86.672 20.776 87.296 21.56 87.296C22.344 87.296 22.84 86.672 22.84 85.84C22.84 85.008 22.344 84.384 21.56 84.384C20.776 84.384 20.28 85.008 20.28 85.84ZM17.576 85.84C17.576 83.728 19.192 82.16 21.56 82.16C23.944 82.16 25.544 83.728 25.544 85.84C25.544 87.952 23.944 89.52 21.56 89.52C19.192 89.52 17.576 87.952 17.576 85.84ZM30.216 89.904V95.984H18.488V89.904H21.192V90.896H27.512V89.904H30.216ZM21.192 93.872H27.512V92.976H21.192V93.872ZM30.216 82.16V89.328H27.48V87.04H25.848V84.528H27.48V82.16H30.216ZM44.6223 82.304V89.376H32.5903V82.304H44.6223ZM40.1103 96.128H37.1023V93.136H31.9823V90.576H45.2143V93.136H40.1103V96.128ZM35.3263 86.848H41.8863V84.832H35.3263V86.848ZM59.6581 89.68V95.824H57.1781V82.224H59.6581V87.152H60.2661V82.16H62.7941V95.984H60.2661V89.68H59.6581ZM56.6181 82.304V95.376H50.6021V82.304H56.6181ZM53.0661 92.896H54.1541V84.8H53.0661V92.896ZM77.3444 86.256V88.848H65.1684V82.304H67.9364V86.256H77.3444ZM75.2644 96.128H72.5284V92.832H69.8244V96.128H67.0884V92.832H64.5604V90.272H77.7924V92.832H75.2644V96.128ZM91.9106 94.096V95.984H79.8786V91.728H88.8706V91.248H79.8786V89.376H91.6066V93.616H82.6146V94.096H91.9106ZM81.6706 85.616C81.6706 86.368 82.1826 86.848 82.8866 86.848C83.5746 86.848 84.0866 86.368 84.0866 85.616C84.0866 84.864 83.5746 84.384 82.8866 84.384C82.1826 84.384 81.6706 84.864 81.6706 85.616ZM78.9666 85.616C78.9666 83.584 80.5986 82.16 82.8866 82.16C85.1586 82.16 86.7906 83.584 86.7906 85.616C86.7906 87.648 85.1586 89.072 82.8866 89.072C80.5986 89.072 78.9666 87.648 78.9666 85.616ZM91.6066 82.16V88.976H88.8706V86.768H87.0946V84.288H88.8706V82.16H91.6066Z" fill="white"/>
<rect x="17" y="48" width="20" height="1" fill="white" fill-opacity="0.5"/>
<path d="M27.673 24.562V31.4H18.014V24.562H19.743V26.434H25.944V24.562H27.673ZM28.219 33.597V35.183H17.468V33.597H21.914V31.881H23.734V33.597H28.219ZM19.743 29.84H25.944V28.007H19.743V29.84ZM40.5351 26.889V28.527H39.0791V31.179H37.3501V24.38H39.0791V26.889H40.5351ZM39.0791 31.621V35.547H29.8491V31.621H39.0791ZM31.5651 34.156H37.3501V33.012H31.5651V34.156ZM36.3881 29.411V30.789H29.6021V26.98H33.8921V25.94H29.6021V24.562H35.5561V28.332H31.2661V29.411H36.3881ZM51.0832 32.622H49.3542V26.148H41.4242V24.562H51.0832V32.622ZM51.6292 33.597V35.183H40.8782V33.597H51.6292ZM61.0722 34.26V33.649H54.8452V34.26H61.0722ZM62.7882 31.738V35.547H53.1292V31.738H54.8452V32.375H61.0722V31.738H62.7882ZM62.9052 28.189V29.463H53.1292V26.382H61.0592V25.836H53.1292V24.562H62.7882V27.63H54.8582V28.189H62.9052ZM58.7582 32.115H57.0292V31.296H52.5832V29.97H63.3342V31.296H58.7582V32.115Z" fill="white"/>
</g>
<defs>
<clipPath id="clip0_120_14891">
<rect width="154" height="117" fill="white"/>
</clipPath>
</defs>
</svg>
