<?xml version="1.0" encoding="utf-8"?>
<!-- Generator: Adobe Illustrator 27.7.0, SVG Export Plug-In . SVG Version: 6.00 Build 0)  -->
<svg version="1.1" id="레이어_1" xmlns="http://www.w3.org/2000/svg" xmlns:xlink="http://www.w3.org/1999/xlink" x="0px"
	 y="0px" viewBox="0 0 122 31" style="enable-background:new 0 0 122 31;" xml:space="preserve">
<style type="text/css">
	.st0{fill:#D30B40;}
	.st1{fill:#173DA5;}
</style>
<path class="st0" d="M8.3,14.7c0,0,1.6-11.2,9.1-11.3c0,0,5.4-0.2,6.9,5.4c0,0,0.4,2.1-1.1,4.6c0,0,5.1-0.6,5.9,4
	c0,0,0.8,4.8-5.5,6.1c0,0,4.8,0.8,6.4,2.8c0,0,0.1,0.2-0.4,0.3c0,0-0.9,0.3-1,0.5c0,0-0.4,0.2-0.6-0.1c0,0-1.3-2.9-10.3-3.6
	c0,0,7.1-2.8,6.9-6.4c0,0,0.3-3.9-4.7-0.8c0,0,2.9-3.2,2.9-6c0,0,0.2-2.7-2.6-2.6c0,0-2.8-0.2-4.5,4.6c0,0-1,2.4-1.5,6.8l-0.4,4.1
	c0,0,0,1.8-2.4,1.9c0,0-2.1,0-2.2-2.3c0,0-0.2-3.9-0.9-5.4c0,0-1.4-3.6-3.8-4.4c0,0-0.8-0.2-1.5-0.1c0,0-0.4,0.2-0.4-0.8
	c0,0-0.5-1.9-2.2-2.1c0,0-0.6-0.5,0.4-0.4C0.9,9.5,4.2,9.2,8.3,14.7L8.3,14.7z"/>
<g>
	<path class="st1" d="M71.1,22.2h-7.8v-1.5h7.8V22.2z M75.2,9.5c-0.3-2-3-3.2-3-3.2h-2.3c0,0,1.2,0.4,1.2,2v5.7h-9.2v-1.2h7.2V7.8
		c0,0,0.1-1.3-1.2-1.3h-0.5v0H59v0h-0.5c-1.2,0-1.2,1.2-1.2,1.3v0c0,0,0,0,0,0C57.4,8,57.5,9,58.6,9l0,0h6.1v1.2h-6.1
		c-1.3,0-1.2,1.3-1.2,1.3v2.4c0,0.9,0.2,1.5,0.7,2c0.5,0.5,1.2,0.7,2.2,0.7h10.8v1H58.5v5.1c0,0.8,0.2,1.4,0.7,1.8
		c0.5,0.4,1.2,0.7,2.2,0.7h13.7v-12h2V9.9h-2V9.5z"/>
	<path class="st1" d="M40.1,12.4h9.5v2h-9.5V12.4z M38.9,17.9h15V7.7c0,0,0-1.3-1.2-1.3l0,0h-1.8l0,0c-1.3,0-1.2,1.3-1.2,1.3v0.2h0
		v1.7h-9.5V7.7c0,0,0.1-1.3-1.3-1.3h0h-0.5h-1.2c-1.3,0-1.3,1.3-1.3,1.3v7.6c0,0.8,0.3,1.4,0.8,1.9C37.2,17.6,38,17.9,38.9,17.9"/>
	<path class="st1" d="M53.4,21.5h-6.6v-3.2h-3.9v3.2h-6.6c-1.3,0-1.3,1.3-1.3,1.3V24l0,0c0,0.3,0.1,1.3,1.3,1.3h17.1h0
		c1.1,0,1.2-0.9,1.3-1.2l0,0v-1.2C54.7,22.8,54.7,21.5,53.4,21.5"/>
	<path class="st1" d="M118.6,14.3C118.6,14.3,118.6,14.3,118.6,14.3L118.6,14.3C118.6,14.3,118.6,14.3,118.6,14.3z M101.6,14.3
		L101.6,14.3L101.6,14.3C101.6,14.3,101.6,14.3,101.6,14.3z M102,11.8L102,11.8c-0.1,0.1-0.2,0.4-0.2,0.7c0,1,1,1.2,1.5,1.2
		c1.3-0.1,2.7-0.4,4-1c0.9-0.5,2.2-1.4,2.7-2c0.5,0.6,1.8,1.5,2.7,2c1.3,0.7,2.8,0.9,4,1c0.5,0,1.4-0.2,1.5-1.2
		c0-0.3-0.1-0.6-0.2-0.8l0,0c-1.9-0.3-2.8-0.4-3.9-1c-0.8-0.4-1.6-0.9-2.2-1.5h5.3l0,0c0.9-0.1,1-0.9,1-1.1l0,0V7.8l0,0V7.8
		c0,0,0.1-1.2-1.1-1.2h-14.1c-1.2,0-1.1,1.2-1.1,1.2v0.1l0,0v0.4l0,0c0,0.2,0.1,1.1,1,1.1l0,0h5.3c-0.5,0.6-1.4,1.1-2.2,1.5
		C104.8,11.5,103.9,11.5,102,11.8z M117.5,14.3L117.5,14.3l-5.9,0v-1h-3.3v1h-6c-1.2,0-1.1,1-1.1,1V16c0,0,0,0.9,1,1l0,0h15.3l0,0
		c1.1,0,1.1-1,1.1-1v-0.7C118.6,15.3,118.6,14.3,117.5,14.3z"/>
	<path class="st1" d="M98.4,11.2h-2.1V9.4l0,0h0c-0.3-1.9-2.8-3-2.8-3l0,0l0,0h-0.6h-0.5h-1.2c0,0,1.1,0.4,1.1,1.9h0v17h3.9v-11h2.1
		V11.2z"/>
	<path class="st1" d="M90.1,8.5c0,0,0-1.2-1.1-1.2l0,0H81l0,0c-1.2,0-1.1,1.2-1.1,1.2V9c0,0,0,1.1,1.1,1.2l0,0h5.7v4.7
		c0,0,0.4,5.5-5.4,6.5c0,0-1,0.1-1,1.2s0.6,1.5,1.1,1.5c0.5,0,8.8-0.9,8.8-9.7L90.1,8.5z"/>
	<path class="st1" d="M114.6,21h-13.4v-2.9H116c0.9,0,1.6,0.2,2.1,0.7c0.5,0.4,0.7,1.1,0.7,1.9V25h-4.2V21z"/>
</g>
</svg>
