<?xml version="1.0" encoding="utf-8"?>
<!-- Generator: Adobe Illustrator 27.8.1, SVG Export Plug-In . SVG Version: 6.00 Build 0)  -->
<svg version="1.1" id="레이어_1" xmlns="http://www.w3.org/2000/svg" xmlns:xlink="http://www.w3.org/1999/xlink" x="0px"
	 y="0px" viewBox="0 0 122 31" style="enable-background:new 0 0 122 31;" xml:space="preserve">
<style type="text/css">
	.st0{fill:#FFFFFF;}
</style>
<path class="st0" d="M9.4,14.9c0,0,1.6-11.4,9.2-11.5c0,0,5.5-0.2,7,5.5c0,0,0.4,2.1-1.1,4.7c0,0,5.2-0.6,6,4.1c0,0,0.8,4.9-5.6,6.2
	c0,0,4.9,0.8,6.5,2.8c0,0,0.1,0.2-0.4,0.3c0,0-0.9,0.3-1,0.5c0,0-0.4,0.2-0.6-0.1c0,0-1.3-2.9-10.4-3.6c0,0,7.2-2.8,7-6.5
	c0,0,0.3-4-4.8-0.8c0,0,2.9-3.2,2.9-6.1c0,0,0.2-2.7-2.6-2.6c0,0-2.8-0.2-4.6,4.7c0,0-1,2.4-1.5,6.9L15,23.4c0,0,0,1.8-2.4,1.9
	c0,0-2.1,0-2.2-2.3c0,0-0.2-4-0.9-5.5c0,0-1.4-3.6-3.9-4.5c0,0-0.8-0.2-1.5-0.1c0,0-0.4,0.2-0.4-0.8c0,0-0.5-1.9-2.2-2.1
	c0,0-0.6-0.5,0.4-0.4C1.9,9.6,5.3,9.3,9.4,14.9L9.4,14.9z"/>
<g>
	<path class="st0" d="M73.1,22.5h-7.9v-1.5h7.9V22.5z M77.2,9.6c-0.3-2-3-3.2-3-3.2h-2.3c0,0,1.2,0.4,1.2,2v5.8h-9.3v-1.2H71V7.9
		c0,0,0.1-1.3-1.2-1.3h-0.5l0,0h-8.5l0,0h-0.5c-1.2,0-1.2,1.2-1.2,1.3l0,0l0,0c0.1,0.2,0.2,1.2,1.3,1.2l0,0h6.2v1.2h-6.2
		c-1.3,0-1.2,1.3-1.2,1.3V14c0,0.9,0.2,1.5,0.7,2s1.2,0.7,2.2,0.7h10.9v1H60.3V23c0,0.8,0.2,1.4,0.7,1.8c0.5,0.4,1.2,0.7,2.2,0.7
		h13.9V13.3h2V10h-2V9.6H77.2z"/>
	<path class="st0" d="M41.6,12.5h9.6v2h-9.6V12.5z M40.4,18.1h15.2V7.8c0,0,0-1.3-1.2-1.3l0,0h-1.8l0,0c-1.3,0-1.2,1.3-1.2,1.3V8
		l0,0v1.7h-9.6V7.8c0,0,0.1-1.3-1.3-1.3l0,0h-0.5h-1.2c-1.3,0-1.3,1.3-1.3,1.3v7.7c0,0.8,0.3,1.4,0.8,1.9
		C38.7,17.8,39.5,18.1,40.4,18.1"/>
	<path class="st0" d="M55.1,21.7h-6.7v-3.2h-4v3.2h-6.7c-1.3,0-1.3,1.3-1.3,1.3v1.2l0,0c0,0.3,0.1,1.3,1.3,1.3h17.3l0,0
		c1.1,0,1.2-0.9,1.3-1.2l0,0v-1.2C56.5,23.1,56.5,21.7,55.1,21.7"/>
	<path class="st0" d="M121.2,14.5L121.2,14.5L121.2,14.5L121.2,14.5z M104,14.5L104,14.5L104,14.5L104,14.5z M104.4,11.9L104.4,11.9
		c-0.1,0.1-0.2,0.4-0.2,0.7c0,1,1,1.2,1.5,1.2c1.3-0.1,2.7-0.4,4.1-1c0.9-0.5,2.2-1.4,2.7-2c0.5,0.6,1.8,1.5,2.7,2
		c1.3,0.7,2.8,0.9,4.1,1c0.5,0,1.4-0.2,1.5-1.2c0-0.3-0.1-0.6-0.2-0.8l0,0c-1.9-0.3-2.8-0.4-4-1c-0.8-0.4-1.6-0.9-2.2-1.5h5.4l0,0
		c0.9-0.1,1-0.9,1-1.1l0,0V7.9l0,0l0,0c0,0,0.1-1.2-1.1-1.2h-14.3c-1.2,0-1.1,1.2-1.1,1.2V8l0,0v0.4l0,0c0,0.2,0.1,1.1,1,1.1l0,0
		h5.4c-0.5,0.6-1.4,1.1-2.2,1.5C107.2,11.6,106.3,11.6,104.4,11.9z M120.1,14.5L120.1,14.5h-6v-1h-3.3v1h-6.1c-1.2,0-1.1,1-1.1,1
		v0.7c0,0,0,0.9,1,1l0,0h15.5l0,0c1.1,0,1.1-1,1.1-1v-0.7C121.2,15.5,121.2,14.5,120.1,14.5z"/>
	<path class="st0" d="M100.8,11.3h-2.1V9.5l0,0l0,0c-0.3-1.9-2.8-3-2.8-3l0,0l0,0h-0.6h-0.5h-1.2c0,0,1.1,0.4,1.1,1.9l0,0v17.2h4
		V14.5h2.1v-3.1H100.8z"/>
	<path class="st0" d="M92.3,8.6c0,0,0-1.2-1.1-1.2l0,0h-8.1l0,0c-1.2,0-1.1,1.2-1.1,1.2v0.5c0,0,0,1.1,1.1,1.2l0,0h5.8v4.8
		c0,0,0.4,5.6-5.5,6.6c0,0-1,0.1-1,1.2s0.6,1.5,1.1,1.5c0.5,0,8.9-0.9,8.9-9.8L92.3,8.6z"/>
	<path class="st0" d="M117.2,21.2h-13.6v-2.9h15c0.9,0,1.6,0.2,2.1,0.7c0.5,0.4,0.7,1.1,0.7,1.9v4.4h-4.3V21.2z"/>
</g>
</svg>
